<?xml version="1.0" encoding="utf-8"?>
<!-- Generator: Adobe Illustrator 22.1.0, SVG Export Plug-In . SVG Version: 6.00 Build 0)  -->
<svg version="1.1"
  xmlns="http://www.w3.org/2000/svg"
  xmlns:xlink="http://www.w3.org/1999/xlink" x="0px" y="0px"
	 viewBox="0 0 24 24" style="enable-background:new 0 0 24 24;" xml:space="preserve">
  <path class="st0" d="M5.7,14.2h8.5v-2H5.7V14.2z M5.6,10.6h12.7v-2H5.6V10.6z M23.3,0.7c-0.5-0.5-1-0.7-1.7-0.7H2.4
	C1.7,0,1.2,0.2,0.7,0.7C0.2,1.2,0,1.7,0,2.4V24l4.8-4.8h16.8c0.6,0,1.2-0.2,1.7-0.7c0.5-0.5,0.7-1.1,0.7-1.7V2.4
	C24,1.7,23.8,1.2,23.3,0.7z M22,16.8c0,0.1,0,0.2-0.1,0.3c-0.1,0.1-0.2,0.1-0.2,0.1H4l-0.6,0.6L2,19.2V2.4c0-0.1,0-0.1,0.1-0.2
	C2.2,2,2.3,2,2.4,2h19.3c0.1,0,0.1,0,0.2,0.1C22,2.2,22,2.3,22,2.4V16.8z M5.6,7.1h12.7v-2H5.6V7.1z"/>
</svg>
