<?xml version="1.0" encoding="utf-8"?>
<!-- Generator: Adobe Illustrator 22.1.0, SVG Export Plug-In . SVG Version: 6.00 Build 0)  -->
<svg version="1.1"
  xmlns="http://www.w3.org/2000/svg"
  xmlns:xlink="http://www.w3.org/1999/xlink" x="0px" y="0px"
	 viewBox="0 0 24 24" style="enable-background:new 0 0 24 24;" xml:space="preserve">
  <path class="st0" d="M23.2,0.8C22.6,0.3,22,0,21.3,0H2.7C2,0,1.4,0.3,0.8,0.8C0.3,1.4,0,2,0,2.7v18.6
	c0,0.7,0.3,1.3,0.8,1.9C1.4,23.7,2,24,2.7,24h18.6c0.7,0,1.3-0.3,1.9-0.8c0.5-0.5,0.8-1.2,0.8-1.9V2.7C24,2,23.7,1.4,23.2,0.8z
	 M21.5,20.7c0,0.6-0.4,1-1,1h-17c-0.6,0-1-0.4-1-1V3.5c0-0.6,0.4-1,1-1h17c0.6,0,1,0.4,1,1V20.7z"/>
</svg>
