<svg  width="12" height="12" version="1.1"
  xmlns="http://www.w3.org/2000/svg"
  xmlns:xlink="http://www.w3.org/1999/xlink" x="0px" y="0px"
	 viewBox="0 0 24 24" style="enable-background:new 0 0 24 24;" xml:space="preserve">
  <path fill="#00a29c" id="checkbox-on" class="st0" d="M23.2,0.8C22.7,0.3,22.1,0,21.3,0H2.7C1.9,0,1.3,0.3,0.8,0.8C0.3,1.4,0,2,0,2.7v18.6
	c0,0.7,0.3,1.3,0.8,1.9C1.3,23.7,1.9,24,2.7,24h18.6c0.8,0,1.4-0.3,1.9-0.8c0.5-0.5,0.8-1.2,0.8-1.9V2.7C24,2,23.7,1.4,23.2,0.8z
	 M20.4,7.6L10,18c0,0,0,0,0,0c-0.4,0.4-1,0.4-1.4,0l-5-5c-0.5-0.5-0.5-1.4,0-1.9c0.5-0.5,1.4-0.5,1.9,0l3.8,3.8l9.2-9.2c0,0,0,0,0,0
	c0.5-0.5,1.4-0.5,1.9,0C20.9,6.3,20.9,7.1,20.4,7.6z"/>
</svg>
