<?xml version="1.0" encoding="utf-8"?>
<!-- Generator: Adobe Illustrator 22.1.0, SVG Export Plug-In . SVG Version: 6.00 Build 0)  -->
<svg version="1.1"
  xmlns="http://www.w3.org/2000/svg"
  xmlns:xlink="http://www.w3.org/1999/xlink" x="0px" y="0px"
	 viewBox="0 0 24 24" style="enable-background:new 0 0 24 24;" xml:space="preserve">
  <path class="st0" d="M11.2,17.1c0.4,0.4,1.1,0.4,1.5,0l4.4-4.4c0.4-0.4,0.4-1.1,0-1.5c-0.4-0.4-1.1-0.4-1.5,0
	l-2.5,2.5V1.1C13.1,0.5,12.6,0,12,0c-0.6,0-1.1,0.5-1.1,1.1v12.6l-2.5-2.5c-0.4-0.4-1.1-0.4-1.5,0c-0.4,0.4-0.4,1.1,0,1.5L11.2,17.1
	z M21.8,16.4c-0.6,0-1.1,0.5-1.1,1.1v3.3c0,0.6-0.5,1.1-1.1,1.1H4.4c-0.6,0-1.1-0.5-1.1-1.1v-3.3c0-0.6-0.5-1.1-1.1-1.1
	s-1.1,0.5-1.1,1.1v3.3c0,1.8,1.5,3.3,3.3,3.3h15.3c1.8,0,3.3-1.5,3.3-3.3v-3.3C22.9,16.9,22.4,16.4,21.8,16.4z"/>
</svg>
