<?xml version="1.0" encoding="utf-8"?>
<!-- Generator: Adobe Illustrator 22.1.0, SVG Export Plug-In . SVG Version: 6.00 Build 0)  -->
<svg version="1.1"
  xmlns="http://www.w3.org/2000/svg"
  xmlns:xlink="http://www.w3.org/1999/xlink" x="0px" y="0px"
	 viewBox="0 0 24 24" style="enable-background:new 0 0 24 24;" xml:space="preserve">
  <path class="st0" d="M16.2,10.5c0.7,0,1.2-0.6,1.2-1.2S16.9,8,16.2,8S15,8.6,15,9.2S15.6,10.5,16.2,10.5z M15.8,13.3
	l-3.1,1.5L9.2,9L6,16.3h11.4L15.8,13.3z M22.8,3H1.2C0.5,3,0,3.5,0,4.1v15.8C0,20.5,0.5,21,1.2,21h21.6c0.7,0,1.2-0.5,1.2-1.1V4.1
	C24,3.5,23.5,3,22.8,3z M22,19H2V5h20V19z"/>
</svg>
