<?xml version="1.0" encoding="utf-8"?>
<!-- Generator: Adobe Illustrator 22.1.0, SVG Export Plug-In . SVG Version: 6.00 Build 0)  -->
<svg version="1.1"
  xmlns="http://www.w3.org/2000/svg"
  xmlns:xlink="http://www.w3.org/1999/xlink" x="0px" y="0px"
	 viewBox="0 0 24 24" style="enable-background:new 0 0 24 24;" xml:space="preserve">
  <path class="st0" d="M12,9.7c-1.3,0-2.3,1-2.3,2.3s1,2.3,2.3,2.3s2.3-1,2.3-2.3S13.3,9.7,12,9.7z M23.9,11.1
	c-0.5-2.7-0.7-4.8-2.5-6.9c-1.9-2.1-4.5-3.6-7.6-4.1c-3.3-0.4-7.2,0.5-9.5,2.7C2.1,4.9,0.6,6.9,0.2,9.9C0,11.3-0.1,12.5,0,14
	c0.1,1.9,0.5,2.6,1.3,4.2c0,0.1,0.1,0.1,0.1,0.2c2.8,5.1,8.7,6,13,5.5c1.5-0.4,2.7-0.8,3.2-1c2-0.8,3.8-2.7,4.9-4.6
	C23.8,16.2,24.2,13.2,23.9,11.1z M18.9,14.9c-0.1,1.1-0.3,2.1-1.1,2.9C17,18.6,16,18.9,14.9,19c-1,0.1-1.9,0-2.9,0s-1.9,0-2.9,0
	C8,18.9,7,18.6,6.2,17.8C5.3,17,5.1,16,5,14.9C5,13.9,5,13,5,12s0-1.9,0-2.9C5.1,8,5.3,7,6.2,6.2C7,5.4,8,5.1,9.1,5
	C10.1,5,11,5,12,5s1.9,0,2.9,0C16,5.1,17,5.4,17.8,6.2C18.6,7,18.9,8,18.9,9.1c0.1,1,0,1.9,0,2.9S19,13.9,18.9,14.9z M17.5,7.9
	c-0.1-0.3-0.3-0.6-0.5-0.8c-0.2-0.2-0.5-0.4-0.8-0.5C15.2,6.2,13,6.3,12,6.3S8.8,6.2,7.9,6.5C7.5,6.7,7.3,6.8,7.1,7.1
	C6.8,7.3,6.7,7.6,6.5,7.9C6.2,8.8,6.2,11,6.2,12s-0.1,3.2,0.3,4.1c0.1,0.3,0.3,0.6,0.5,0.8c0.2,0.2,0.5,0.4,0.8,0.5
	c0.9,0.4,3.1,0.3,4.1,0.3s3.2,0.1,4.1-0.3c0.3-0.1,0.6-0.3,0.8-0.5c0.2-0.2,0.4-0.5,0.5-0.8c0.4-0.9,0.3-3.1,0.3-4.1
	S17.8,8.8,17.5,7.9z M12,15.6c-2,0-3.6-1.6-3.6-3.6S10,8.4,12,8.4s3.6,1.6,3.6,3.6S14,15.6,12,15.6z M15.7,9.1
	c-0.5,0-0.8-0.4-0.8-0.8c0-0.5,0.4-0.8,0.8-0.8c0.5,0,0.8,0.4,0.8,0.8C16.6,8.7,16.2,9.1,15.7,9.1z"/>
</svg>
