<?xml version="1.0" encoding="utf-8"?>
<!-- Generator: Adobe Illustrator 22.1.0, SVG Export Plug-In . SVG Version: 6.00 Build 0)  -->
<svg version="1.1"
  xmlns="http://www.w3.org/2000/svg"
  xmlns:xlink="http://www.w3.org/1999/xlink" x="0px" y="0px"
	 viewBox="0 0 24 24" style="enable-background:new 0 0 24 24;" xml:space="preserve">
  <path class="st0" d="M12,24C5.4,24,0,18.6,0,12S5.4,0,12,0s12,5.4,12,12S18.6,24,12,24z M3.3,7h4.1
	c0.4-1.2,0.9-2.4,1.5-3.6c0.2-0.4,0.4-0.8,0.6-1.1C6.9,3,4.7,4.7,3.3,7z M9.5,7H15c-0.7-1.6-1.6-3.3-2.9-4.9
	c-0.5,0.7-0.9,1.4-1.4,2.3C10.2,5.2,9.8,6.1,9.5,7z M20.7,7c-1.3-2.2-3.4-3.9-5.9-4.6c1.1,1.5,1.9,3.1,2.4,4.6H20.7z M3.3,17
	c1.3,2.2,3.4,3.9,6,4.6c-1-1.5-1.7-3.1-2.2-4.6H3.3L3.3,17z M2.4,15h4.2c-0.3-2-0.3-4,0.2-6H2.4C2.2,9.9,2,11,2,12S2.2,14.1,2.4,15z
	 M9.3,17c0.6,1.7,1.5,3.3,2.7,4.9c1.3-1.7,2.3-3.3,3-4.9H9.3z M8.7,15h6.9c0.5-2,0.5-4,0-6H8.9C8.4,11,8.4,13,8.7,15z M20.7,17h-3.5
	c-0.5,1.5-1.3,3.1-2.4,4.6C17.2,20.9,19.4,19.2,20.7,17z M21.5,15c0.3-0.9,0.5-2,0.5-3s-0.2-2.1-0.5-3h-3.9c0.4,2,0.4,4,0,6H21.5z"
	/>
</svg>
