<?xml version="1.0" encoding="utf-8"?>
<!-- Generator: Adobe Illustrator 22.1.0, SVG Export Plug-In . SVG Version: 6.00 Build 0)  -->
<svg version="1.1"
  xmlns="http://www.w3.org/2000/svg"
  xmlns:xlink="http://www.w3.org/1999/xlink" x="0px" y="0px"
	 viewBox="0 0 24 24" style="enable-background:new 0 0 24 24;" xml:space="preserve">
  <path class="st0" d="M23.9,11.1c-0.5-2.7-0.7-4.8-2.5-6.9c-1.9-2.1-4.5-3.6-7.6-4.1c-3.3-0.4-7.2,0.5-9.5,2.7
	C2.1,4.9,0.6,6.9,0.2,9.9C0,11.3-0.1,12.5,0,14c0.1,1.9,0.5,2.6,1.3,4.2c0,0.1,0.1,0.1,0.1,0.2c2.8,5.1,8.7,6,13,5.5
	c1.5-0.4,2.7-0.8,3.2-1c2-0.8,3.8-2.7,4.9-4.6C23.8,16.2,24.2,13.2,23.9,11.1z M8.7,17.5H6.1V9.7h2.6V17.5z M7.4,8.7L7.4,8.7
	C6.5,8.7,6,8.1,6,7.3C6,6.6,6.6,6,7.4,6c0.9,0,1.4,0.6,1.4,1.3C8.9,8.1,8.3,8.7,7.4,8.7z M18,17.5h-2.6v-4.1c0-1-0.4-1.8-1.3-1.8
	c-0.7,0-1.1,0.5-1.3,0.9c-0.1,0.2-0.1,0.4-0.1,0.6v4.3h-2.6c0-7,0-7.7,0-7.7h2.6v1.1c0.3-0.5,0.9-1.3,2.3-1.3c1.7,0,3,1.1,3,3.5
	V17.5z M12.7,10.9L12.7,10.9C12.7,10.8,12.7,10.8,12.7,10.9L12.7,10.9z"/>
</svg>
