<?xml version="1.0" encoding="utf-8"?>
<!-- Generator: Adobe Illustrator 22.1.0, SVG Export Plug-In . SVG Version: 6.00 Build 0)  -->
<svg width="23" height="24" fill="#b72b56" version="1.1"
  xmlns="http://www.w3.org/2000/svg"
  xmlns:xlink="http://www.w3.org/1999/xlink" x="0px" y="0px"
	 viewBox="0 0 24 24" style="enable-background:new 0 0 24 24;" xml:space="preserve">
  <path fill="#b72b56" id="location-filled" class="st0" d="M18.2,2.5C16.5,0.9,14.4,0,12,0C9.6,0,7.5,0.9,5.8,2.5C4.1,4.2,3.3,6.3,3.3,8.7
	c0,1.2,0.3,2.6,0.9,4.1c0.6,1.4,1.2,2.8,1.9,3.9c0.7,1.1,1.5,2.3,2.4,3.5c0.9,1.2,1.5,2,1.9,2.4c0.2,0.2,0.5,0.5,0.9,1
	c0,0,0,0.1,0.1,0.1c0.4,0.4,1,0.4,1.4,0l0.9-1c0.6-0.7,1.2-1.5,2-2.6c0.7-1.1,1.5-2.2,2.2-3.4c0.8-1.2,1.5-2.6,2-4
	c0.6-1.5,0.9-2.8,0.9-4C20.7,6.3,19.8,4.2,18.2,2.5z M14.7,11.4C14,12.2,13,12.5,12,12.5s-2-0.4-2.7-1.1c-0.7-0.7-1.1-1.7-1.1-2.7
	c0-1,0.4-2,1.1-2.7C10,5.3,10.9,4.9,12,4.9s2,0.4,2.7,1.1c0.7,0.7,1.1,1.7,1.1,2.7C15.8,9.8,15.4,10.7,14.7,11.4z"/>
</svg>
