<?xml version="1.0" encoding="utf-8"?>
<!-- Generator: Adobe Illustrator 22.1.0, SVG Export Plug-In . SVG Version: 6.00 Build 0)  -->
<svg version="1.1"
  xmlns="http://www.w3.org/2000/svg"
  xmlns:xlink="http://www.w3.org/1999/xlink" x="0px" y="0px"
	 viewBox="0 0 24 24" style="enable-background:new 0 0 24 24;" xml:space="preserve">
  <path  class="st0" d="M6,18h8v-2H6V18z M21.7,6.2l-6.1-6C15.4,0.1,15.2,0,14.9,0H3C2.4,0,2,0.4,2,1V23c0,0.6,0.4,1,1,1h18
	c0.6,0,1-0.4,1-1V6.9C22,6.7,21.9,6.4,21.7,6.2z M15,2.4l4.1,4H15V2.4z M20,22H4V2h9v4.5c0,1.1,0.9,2,2,2h5V22z M6,15h12v-2H6V15z"
	/>
</svg>
