<?xml version="1.0" encoding="utf-8"?>
<!-- Generator: Adobe Illustrator 22.1.0, SVG Export Plug-In . SVG Version: 6.00 Build 0)  -->
<svg version="1.1"
  xmlns="http://www.w3.org/2000/svg"
  xmlns:xlink="http://www.w3.org/1999/xlink" x="0px" y="0px"
	 viewBox="0 0 24 24" style="enable-background:new 0 0 24 24;" xml:space="preserve">
  <path class="st0" d="M21.8,16.2c-1.5-1-3.1-1.7-4.9-2.1c-1.8-0.4-3.4-0.6-4.9-0.6s-3.1,0.2-4.9,0.6
	c-1.8,0.4-3.4,1.1-4.9,2.1c-1.5,1-2.2,2.1-2.2,3.3V24h24v-4.5C24,18.3,23.3,17.2,21.8,16.2z M21.1,21.1H2.9v-1.6c0-0.6,1-1.2,3-2
	c2-0.8,4-1.2,6.1-1.2s4.1,0.4,6.1,1.2c2,0.8,3,1.4,3,2V21.1z M12,12c1.6,0,3-0.6,4.2-1.8C17.4,9.1,18,7.7,18,6S17.4,3,16.2,1.8
	C15,0.6,13.6,0,12,0S9,0.6,7.8,1.8C6.6,3,6,4.4,6,6s0.6,3,1.8,4.2C9,11.4,10.4,12,12,12z M9.8,3.8c0.6-0.6,1.4-0.9,2.2-0.9
	s1.6,0.3,2.2,0.9c0.6,0.6,0.9,1.4,0.9,2.2c0,0.9-0.3,1.6-0.9,2.2c-0.6,0.6-1.4,0.9-2.2,0.9s-1.6-0.3-2.2-0.9C9.1,7.7,8.8,6.9,8.8,6
	C8.8,5.1,9.1,4.4,9.8,3.8z"/>
</svg>
