<?xml version="1.0" encoding="utf-8"?>
<!-- Generator: Adobe Illustrator 22.1.0, SVG Export Plug-In . SVG Version: 6.00 Build 0)  -->
<svg version="1.1"
  xmlns="http://www.w3.org/2000/svg"
  xmlns:xlink="http://www.w3.org/1999/xlink" x="0px" y="0px"
	 viewBox="0 0 24 24" style="enable-background:new 0 0 24 24;" xml:space="preserve">
  <path class="st0" d="M20.7,7.6h-1.1V1.1c0-0.6-0.5-1.1-1.1-1.1H5.4C4.8,0,4.4,0.5,4.4,1.1v6.5H3.3C1.5,7.6,0,9.1,0,10.9
	v5.5c0,1.8,1.5,3.3,3.3,3.3h1.1v3.3c0,0.6,0.5,1.1,1.1,1.1h13.1c0.6,0,1.1-0.5,1.1-1.1v-3.3h1.1c1.8,0,3.3-1.5,3.3-3.3v-5.5
	C24,9.1,22.5,7.6,20.7,7.6z M6.5,2.2h10.9v5.5H6.5V2.2z M17.4,21.8H6.5v-6.5h10.9V21.8z M21.8,16.4c0,0.6-0.5,1.1-1.1,1.1h-1.1v-3.3
	c0-0.6-0.5-1.1-1.1-1.1H5.4c-0.6,0-1.1,0.5-1.1,1.1v3.3H3.3c-0.6,0-1.1-0.5-1.1-1.1v-5.5c0-0.6,0.5-1.1,1.1-1.1h17.5
	c0.6,0,1.1,0.5,1.1,1.1V16.4z"/>
</svg>
