<?xml version="1.0" encoding="utf-8"?>
<!-- Generator: Adobe Illustrator 22.1.0, SVG Export Plug-In . SVG Version: 6.00 Build 0)  -->
<svg version="1.1"
  xmlns="http://www.w3.org/2000/svg"
  xmlns:xlink="http://www.w3.org/1999/xlink" x="0px" y="0px"
	 viewBox="0 0 24 24" style="enable-background:new 0 0 24 24;" xml:space="preserve">
  <path class="st0" d="M12.6,6h-1.8v7.2l6.3,3.8l0.9-1.5l-5.4-3.2V6z M20.5,3.5C18.1,1.2,15.3,0,12,0S5.9,1.2,3.5,3.5
	C1.2,5.9,0,8.7,0,12c0,3.3,1.2,6.1,3.5,8.5S8.7,24,12,24s6.1-1.2,8.5-3.5S24,15.3,24,12C24,8.7,22.8,5.9,20.5,3.5z M18.8,18.8
	c-1.9,1.9-4.2,2.8-6.8,2.8s-4.9-0.9-6.8-2.8c-1.9-1.9-2.8-4.2-2.8-6.8s0.9-4.9,2.8-6.8C7.1,3.3,9.4,2.4,12,2.4s4.9,0.9,6.8,2.8
	c1.9,1.9,2.8,4.2,2.8,6.8S20.7,16.9,18.8,18.8z"/>
</svg>
