<?xml version="1.0" encoding="utf-8"?>
<!-- Generator: Adobe Illustrator 22.1.0, SVG Export Plug-In . SVG Version: 6.00 Build 0)  -->
<svg version="1.1"
  xmlns="http://www.w3.org/2000/svg"
  xmlns:xlink="http://www.w3.org/1999/xlink" x="0px" y="0px"
	 viewBox="0 0 24 24" style="enable-background:new 0 0 24 24;" xml:space="preserve">
  <style type="text/css">
	.st0{fill-rule:evenodd;clip-rule:evenodd;fill:#00A29C;}
</style>
  <path class="st0" d="M23.9,11.1c-0.5-2.7-0.7-4.8-2.5-6.9c-1.9-2.1-4.5-3.6-7.6-4.1c-3.3-0.4-7.2,0.5-9.5,2.7
	C2.1,4.9,0.6,6.9,0.2,9.9C0,11.3-0.1,12.5,0,14c0.1,1.9,0.5,2.6,1.3,4.2c0,0.1,0.1,0.1,0.1,0.2c2.8,5.1,8.7,6,13,5.5
	c1.5-0.4,2.7-0.8,3.2-1c2-0.8,3.8-2.7,4.9-4.6C23.8,16.2,24.2,13.2,23.9,11.1z M17,9.5c0,0.1,0,0.2,0,0.3c0,3.3-2.5,7.2-7.2,7.2
	c-1.4,0-2.8-0.4-3.9-1.1c0.2,0,0.4,0,0.6,0c1.2,0,2.3-0.4,3.1-1.1c-1.1,0-2-0.8-2.4-1.8c0.2,0,0.3,0,0.5,0c0.2,0,0.5,0,0.7-0.1
	c-1.2-0.2-2-1.2-2-2.5v0c0.3,0.2,0.7,0.3,1.1,0.3C7,10.4,6.5,9.6,6.5,8.7c0-0.5,0.1-0.9,0.3-1.3C8.1,9,10,10,12.1,10.1
	C12,9.9,12,9.7,12,9.5C12,8.1,13.1,7,14.5,7c0.7,0,1.4,0.3,1.8,0.8c0.6-0.1,1.1-0.3,1.6-0.6c-0.2,0.6-0.6,1.1-1.1,1.4
	c0.5-0.1,1-0.2,1.5-0.4C18,8.7,17.5,9.1,17,9.5z"/>
</svg>
