<?xml version="1.0" encoding="utf-8"?>
<!-- Generator: Adobe Illustrator 22.1.0, SVG Export Plug-In . SVG Version: 6.00 Build 0)  -->
<svg version="1.1"
  xmlns="http://www.w3.org/2000/svg"
  xmlns:xlink="http://www.w3.org/1999/xlink" x="0px" y="0px"
	 viewBox="0 0 24 24" style="enable-background:new 0 0 24 24;" xml:space="preserve">
  <path class="st0" d="M10,9v6l5.2-3L10,9z M24,6.3V4.9C24,4.4,23.6,4,23,4H1C0.4,4,0,4.4,0,4.9v1.4h2.4v2.3H0v2.3h2.4v2.3
	H0v2.3h2.4v2.3H0v1.4C0,19.6,0.4,20,1,20H23c0.5,0,1-0.4,1-0.9v-1.4h-2.4v-2.3H24v-2.3h-2.4v-2.3H24V8.6h-2.4V6.3H24z M19.6,18H4.4
	V6h15.2V18z"/>
</svg>
