<?xml version="1.0" encoding="utf-8"?>
<!-- Generator: Adobe Illustrator 22.1.0, SVG Export Plug-In . SVG Version: 6.00 Build 0)  -->
<svg version="1.1"
  xmlns="http://www.w3.org/2000/svg"
  xmlns:xlink="http://www.w3.org/1999/xlink" x="0px" y="0px"
	 viewBox="0 0 24 24" style="enable-background:new 0 0 24 24;" xml:space="preserve">
  <path class="st0" d="M10.5,13.7l3.8-2l-3.8-2V13.7z M23.9,11.1c-0.5-2.7-0.7-4.8-2.5-6.9c-1.9-2.1-4.5-3.6-7.6-4.1
	c-3.3-0.4-7.2,0.5-9.5,2.7C2.1,4.9,0.6,6.9,0.2,9.9C0,11.3-0.1,12.5,0,14c0.1,1.9,0.5,2.6,1.3,4.2c0,0.1,0.1,0.1,0.1,0.2
	c2.8,5.1,8.7,6,13,5.5c1.5-0.4,2.7-0.8,3.2-1c2-0.8,3.8-2.7,4.9-4.6C23.8,16.2,24.2,13.2,23.9,11.1z M18.8,14.7
	c-0.1,1-0.6,1.4-0.6,1.4c-0.5,0.6-1.1,0.6-1.4,0.6c0,0-2,0.1-4.9,0.1c-3.6,0-4.8-0.1-4.8-0.1c-0.3-0.1-1,0-1.5-0.6
	c0,0-0.4-0.4-0.6-1.4C5,13.6,5,12.5,5,12.5v-1.1c0,0,0-1.1,0.1-2.3c0.1-1,0.6-1.4,0.6-1.4c0.5-0.6,1.1-0.6,1.4-0.6C7.1,7.1,9,7,12,7
	c2.9,0,4.9,0.1,4.9,0.1c0.3,0,0.9,0,1.4,0.6c0,0,0.4,0.4,0.6,1.4c0.1,1.1,0.1,2.3,0.1,2.3v1.1C19,12.5,19,13.6,18.8,14.7z"/>
</svg>
