<?xml version="1.0" encoding="utf-8"?>
<!-- Generator: Adobe Illustrator 22.1.0, SVG Export Plug-In . SVG Version: 6.00 Build 0)  -->
<svg version="1.1"
  xmlns="http://www.w3.org/2000/svg"
  xmlns:xlink="http://www.w3.org/1999/xlink" x="0px" y="0px"
	 viewBox="0 0 24 24" style="enable-background:new 0 0 24 24;" xml:space="preserve">
  <path class="st0" d="M14,16v-2h-2v2H14z M14,20v-2h-2v2H14z M14,12v-2h-2v2H14z M14,8V6h-2v2H14z M10,22h2v-2h-2V22z M10,6
	h2V4h-2V6z M21,0H3C2.4,0,2,0.4,2,1v22.1c0,0.6,0.4,1,1,1h18c0.6,0,1-0.4,1-1V1C22,0.4,21.5,0,21,0z M20,22.1H4V2h8v2h2V2h6V22.1z
	 M10,18h2v-2h-2V18z M10,10h2V8h-2V10z M10,14h2v-2h-2V14z"/>
</svg>
