<?xml version="1.0" encoding="utf-8"?>
<!-- Generator: Adobe Illustrator 22.1.0, SVG Export Plug-In . SVG Version: 6.00 Build 0)  -->
<svg version="1.1"
  xmlns="http://www.w3.org/2000/svg"
  xmlns:xlink="http://www.w3.org/1999/xlink" x="0px" y="0px"
	 viewBox="0 0 24 24" style="enable-background:new 0 0 24 24;" xml:space="preserve">
  <path class="st0" d="M10,12v-2H8v2H10z M10,16v-2H8v2H10z M10,20v-2H8v2H10z M10,8V6H8v2H10z M6,10h2V8H6V10z M6,6h2V4H6
	V6z M21.7,6.3l-6.1-6C15.4,0.1,15.2,0,14.9,0H3C2.4,0,2,0.4,2,1v22.1c0,0.6,0.4,1,1,1h18c0.6,0,1-0.4,1-1V7
	C22,6.7,21.9,6.4,21.7,6.3z M15,2.5l4.1,4H15V2.5z M20,22.1H4V2h4v2h2V2h3v4.5c0,1.1,0.9,2,2,2h5V22.1z M6,18h2v-2H6V18z M6,22h2v-2
	H6V22z M6,14h2v-2H6V14z"/>
</svg>
