<?xml version="1.0" standalone="no"?>
<!DOCTYPE svg PUBLIC "-//W3C//DTD SVG 1.1//EN" "http://www.w3.org/Graphics/SVG/1.1/DTD/svg11.dtd" >
<svg xmlns="http://www.w3.org/2000/svg">
<defs>
  <font id="Proj" horiz-adv-x="256">
    <font-face font-family="Proj"
      units-per-em="256" ascent="256"
      descent="0" />
    <missing-glyph horiz-adv-x="0" />
    <glyph glyph-name="chevron-down"
      unicode="&#xEA02;"
      horiz-adv-x="256" d="M250.6666666666667 196.2666666666667C243.2 203.7333333333334 231.4666666666667 203.7333333333334 225.0666666666667 196.2666666666667L128 99.2L30.9333333333333 196.2666666666667C24.5333333333333 202.6666666666667 12.8 202.6666666666667 5.3333333333333 196.2666666666667C-2.1333333333333 188.8 -2.1333333333333 177.0666666666667 5.3333333333333 170.6666666666667L115.2 60.8C122.6666666666667 53.3333333333333 134.4 53.3333333333333 140.8 60.8L250.6666666666667 169.6C258.1333333333334 177.0666666666667 258.1333333333334 188.8 250.6666666666667 196.2666666666667z" />
    <glyph glyph-name="chat"
      unicode="&#xEA03;"
      horiz-adv-x="256" d="M60.8 104.5333333333334H151.4666666666667V125.8666666666667H60.8V104.5333333333334zM59.7333333333333 142.9333333333334H195.2V164.2666666666667H59.7333333333333V142.9333333333334zM248.5333333333334 248.5333333333334C243.2 253.8666666666667 237.8666666666667 256 230.4 256H25.6C18.1333333333333 256 12.8 253.8666666666667 7.4666666666667 248.5333333333334C2.1333333333333 243.2 0 237.8666666666667 0 230.4V0L51.2 51.2H230.4C236.8 51.2 243.2 53.3333333333333 248.5333333333333 58.6666666666667C253.8666666666667 64 256 70.4 256 76.8V230.4C256 237.8666666666667 253.8666666666667 243.2 248.5333333333333 248.5333333333334zM234.6666666666667 76.8C234.6666666666667 75.7333333333334 234.6666666666667 74.6666666666667 233.6 73.6C232.5333333333334 72.5333333333334 231.4666666666667 72.5333333333334 231.4666666666667 72.5333333333334H42.6666666666667L36.2666666666667 66.1333333333334L21.3333333333333 51.2V230.4C21.3333333333333 231.4666666666667 21.3333333333333 231.4666666666667 22.4 232.5333333333334C23.4666666666667 234.6666666666667 24.5333333333333 234.6666666666667 25.6 234.6666666666667H231.4666666666667C232.5333333333334 234.6666666666667 232.5333333333334 234.6666666666667 233.6 233.6S234.6666666666667 231.4666666666667 234.6666666666667 230.4V76.8zM59.7333333333333 180.2666666666667H195.2V201.6H59.7333333333333V180.2666666666667z" />
    <glyph glyph-name="carret-right"
      unicode="&#xEA04;"
      horiz-adv-x="256" d="M198.4 142.9333333333333L78.9333333333333 251.7333333333333C75.7333333333333 254.9333333333334 71.4666666666667 256 68.2666666666667 256C58.6666666666667 256 51.2 248.5333333333334 51.2 238.9333333333334V16C51.2 11.7333333333333 52.2666666666667 7.4666666666667 55.4666666666667 5.3333333333334C61.8666666666667 -1.0666666666666 72.5333333333333 -2.1333333333333 78.9333333333333 4.2666666666667L198.4 113.0666666666667C206.9333333333333 121.6 206.9333333333333 134.4 198.4 142.9333333333333z" />
    <glyph glyph-name="zip2"
      unicode="&#xEA05;"
      horiz-adv-x="256" d="M106.6666666666667 128V149.3333333333333H85.3333333333333V128H106.6666666666667zM106.6666666666667 85.3333333333333V106.6666666666667H85.3333333333333V85.3333333333333H106.6666666666667zM106.6666666666667 42.6666666666667V64H85.3333333333333V42.6666666666667H106.6666666666667zM106.6666666666667 170.6666666666667V192H85.3333333333333V170.6666666666667H106.6666666666667zM64 149.3333333333334H85.3333333333333V170.6666666666667H64V149.3333333333334zM64 192H85.3333333333333V213.3333333333334H64V192zM231.4666666666667 188.8L166.4 252.8C164.2666666666667 254.9333333333334 162.1333333333333 256 158.9333333333333 256H32C25.6 256 21.3333333333333 251.7333333333334 21.3333333333333 245.3333333333334V9.6C21.3333333333333 3.2 25.6 -1.0666666666667 32 -1.0666666666667H224C230.4 -1.0666666666667 234.6666666666667 3.2 234.6666666666667 9.6V181.3333333333334C234.6666666666667 184.5333333333334 233.6 187.7333333333334 231.4666666666667 188.8zM160 229.3333333333334L203.7333333333333 186.6666666666667H160V229.3333333333334zM213.3333333333333 20.2666666666667H42.6666666666667V234.6666666666667H85.3333333333333V213.3333333333334H106.6666666666667V234.6666666666667H138.6666666666667V186.6666666666667C138.6666666666667 174.9333333333333 148.2666666666667 165.3333333333334 160 165.3333333333334H213.3333333333333V20.2666666666667zM64 64H85.3333333333333V85.3333333333333H64V64zM64 21.3333333333333H85.3333333333333V42.6666666666667H64V21.3333333333333zM64 106.6666666666667H85.3333333333333V128H64V106.6666666666667z" />
    <glyph glyph-name="zip"
      unicode="&#xEA06;"
      horiz-adv-x="256" d="M149.3333333333333 85.3333333333333V106.6666666666667H128V85.3333333333333H149.3333333333333zM149.3333333333333 42.6666666666667V64H128V42.6666666666667H149.3333333333333zM149.3333333333333 128V149.3333333333334H128V128H149.3333333333333zM149.3333333333333 170.6666666666667V192H128V170.6666666666667H149.3333333333333zM106.6666666666667 21.3333333333334H128V42.6666666666667H106.6666666666667V21.3333333333334zM106.6666666666667 192H128V213.3333333333334H106.6666666666667V192zM224 256H32C25.6 256 21.3333333333333 251.7333333333334 21.3333333333333 245.3333333333334V9.6C21.3333333333333 3.2 25.6 -1.0666666666667 32 -1.0666666666667H224C230.4 -1.0666666666667 234.6666666666667 3.2 234.6666666666667 9.6V245.3333333333334C234.6666666666667 251.7333333333333 229.3333333333333 256 224 256zM213.3333333333334 20.2666666666667H42.6666666666667V234.6666666666667H128V213.3333333333334H149.3333333333334V234.6666666666667H213.3333333333334V20.2666666666667zM106.6666666666667 64H128V85.3333333333333H106.6666666666667V64zM106.6666666666667 149.3333333333333H128V170.6666666666667H106.6666666666667V149.3333333333334zM106.6666666666667 106.6666666666667H128V128H106.6666666666667V106.6666666666667z" />
    <glyph glyph-name="youtube"
      unicode="&#xEA07;"
      horiz-adv-x="256" d="M112 109.8666666666667L152.5333333333333 131.2L112 152.5333333333333V109.8666666666667zM254.9333333333334 137.6C249.6 166.4 247.4666666666667 188.8 228.2666666666667 211.2C208 233.6 180.2666666666667 249.6 147.2 254.9333333333334C112 259.2 70.4 249.6 45.8666666666667 226.1333333333334C22.4 203.7333333333334 6.4 182.4 2.1333333333333 150.4C0 135.4666666666667 -1.0666666666667 122.6666666666667 0 106.6666666666667C1.0666666666667 86.4 5.3333333333333 78.9333333333333 13.8666666666667 61.8666666666667C13.8666666666667 60.8 14.9333333333333 60.8 14.9333333333333 59.7333333333334C44.8 5.3333333333334 107.7333333333333 -4.2666666666667 153.6 1.0666666666667C169.6 5.3333333333334 182.4 9.6 187.7333333333333 11.7333333333333C209.0666666666667 20.2666666666667 228.2666666666667 40.5333333333334 240 60.8C253.8666666666667 83.2 258.1333333333334 115.2 254.9333333333334 137.6zM200.5333333333334 99.2C199.4666666666667 88.5333333333334 194.1333333333334 84.2666666666667 194.1333333333334 84.2666666666667C188.8 77.8666666666667 182.4 77.8666666666667 179.2 77.8666666666667C179.2 77.8666666666667 157.8666666666667 76.8 126.9333333333334 76.8C88.5333333333334 76.8 75.7333333333334 77.8666666666667 75.7333333333334 77.8666666666667C72.5333333333334 78.9333333333333 65.0666666666667 77.8666666666667 59.7333333333334 84.2666666666667C59.7333333333334 84.2666666666667 55.4666666666667 88.5333333333334 53.3333333333334 99.2V134.4S53.3333333333334 146.1333333333333 54.4 158.9333333333333C55.4666666666667 169.6 60.8 173.8666666666667 60.8 173.8666666666667C66.1333333333334 180.2666666666667 72.5333333333334 180.2666666666667 75.7333333333334 180.2666666666667C75.7333333333333 180.2666666666667 96 181.3333333333334 128 181.3333333333334C158.9333333333333 181.3333333333334 180.2666666666667 180.2666666666667 180.2666666666667 180.2666666666667C183.4666666666667 180.2666666666667 189.8666666666667 180.2666666666667 195.2 173.8666666666667C195.2 173.8666666666667 199.4666666666667 169.6 201.6 158.9333333333333C202.6666666666667 147.2 202.6666666666667 134.4 202.6666666666667 134.4V122.6666666666667S202.6666666666667 110.9333333333333 200.5333333333333 99.2z" />
    <glyph glyph-name="video"
      unicode="&#xEA08;"
      horiz-adv-x="256" d="M106.6666666666667 160V96L162.1333333333333 128L106.6666666666667 160zM256 188.8V203.7333333333334C256 209.0666666666667 251.7333333333333 213.3333333333334 245.3333333333333 213.3333333333334H10.6666666666667C4.2666666666667 213.3333333333334 0 209.0666666666667 0 203.7333333333334V188.8H25.6V164.2666666666667H0V139.7333333333334H25.6V115.2H0V90.6666666666667H25.6V66.1333333333333H0V51.2C0 46.9333333333333 4.2666666666667 42.6666666666667 10.6666666666667 42.6666666666667H245.3333333333333C250.6666666666667 42.6666666666667 256 46.9333333333333 256 52.2666666666667V67.2H230.4V91.7333333333333H256V116.2666666666667H230.4V140.8H256V164.2666666666667H230.4V188.8H256zM209.0666666666667 64H46.9333333333333V192H209.0666666666667V64z" />
    <glyph glyph-name="type"
      unicode="&#xEA09;"
      horiz-adv-x="256" d="M245.3333333333333 229.3333333333334H160V250.6666666666667H96V229.3333333333334H10.6666666666667V208H245.3333333333333V229.3333333333334zM0 186.6666666666667V165.3333333333334H21.3333333333333V48C21.3333333333333 24.5333333333333 40.5333333333333 5.3333333333333 64 5.3333333333333H192C215.4666666666667 5.3333333333333 234.6666666666667 24.5333333333333 234.6666666666667 48V165.3333333333333H256V186.6666666666667H0zM213.3333333333333 48C213.3333333333333 36.2666666666667 203.7333333333333 26.6666666666667 192 26.6666666666667H64C52.2666666666667 26.6666666666667 42.6666666666667 36.2666666666667 42.6666666666667 48V165.3333333333333H213.3333333333333V48z" />
    <glyph glyph-name="twitter"
      unicode="&#xEA0A;"
      horiz-adv-x="256" d="M254.9333333333333 137.6C249.6 166.4 247.4666666666667 188.8 228.2666666666667 211.2C208 233.6 180.2666666666667 249.6 147.2 254.9333333333334C112 259.2 70.4 249.6 45.8666666666667 226.1333333333334C22.4 203.7333333333334 6.4 182.4 2.1333333333333 150.4C0 135.4666666666667 -1.0666666666667 122.6666666666667 0 106.6666666666667C1.0666666666667 86.4 5.3333333333333 78.9333333333333 13.8666666666667 61.8666666666667C13.8666666666667 60.8 14.9333333333333 60.8 14.9333333333333 59.7333333333334C44.8 5.3333333333334 107.7333333333333 -4.2666666666667 153.6 1.0666666666667C169.6 5.3333333333334 182.4 9.6 187.7333333333333 11.7333333333333C209.0666666666667 20.2666666666667 228.2666666666667 40.5333333333334 240 60.8C253.8666666666667 83.2 258.1333333333334 115.2 254.9333333333334 137.6zM181.3333333333333 154.6666666666667V151.4666666666667C181.3333333333333 116.2666666666667 154.6666666666667 74.6666666666667 104.5333333333333 74.6666666666667C89.6 74.6666666666667 74.6666666666667 78.9333333333334 62.9333333333333 86.4H69.3333333333333C82.1333333333333 86.4 93.8666666666667 90.6666666666667 102.4 98.1333333333334C90.6666666666667 98.1333333333334 81.0666666666667 106.6666666666667 76.8 117.3333333333334H82.1333333333333C84.2666666666667 117.3333333333334 87.4666666666667 117.3333333333334 89.6 118.4C76.8 120.5333333333334 68.2666666666667 131.2000000000001 68.2666666666667 145.0666666666667C71.4666666666667 142.9333333333333 75.7333333333333 141.8666666666667 80 141.8666666666667C74.6666666666667 145.0666666666667 69.3333333333333 153.6 69.3333333333333 163.2C69.3333333333333 168.5333333333334 70.4 172.8 72.5333333333333 177.0666666666667C86.4 160 106.6666666666667 149.3333333333334 129.0666666666667 148.2666666666667C128 150.4 128 152.5333333333334 128 154.6666666666667C128 169.6 139.7333333333333 181.3333333333334 154.6666666666667 181.3333333333334C162.1333333333333 181.3333333333334 169.6 178.1333333333333 173.8666666666667 172.8C180.2666666666667 173.8666666666667 185.6 176 190.9333333333333 179.2C188.8 172.8 184.5333333333333 167.4666666666667 179.2 164.2666666666667C184.5333333333333 165.3333333333334 189.8666666666667 166.4 195.2 168.5333333333334C192 163.2 186.6666666666667 158.9333333333333 181.3333333333333 154.6666666666667z" />
    <glyph glyph-name="time"
      unicode="&#xEA0B;"
      horiz-adv-x="256" d="M134.4 192H115.2V115.2L182.4 74.6666666666667L192 90.6666666666667L134.4 124.8V192zM218.6666666666666 218.6666666666667C193.0666666666667 243.2 163.2 256 128 256S62.9333333333333 243.2 37.3333333333333 218.6666666666667C12.8 193.0666666666667 0 163.2 0 128S12.8 62.9333333333333 37.3333333333333 37.3333333333333S92.8 0 128 0S193.0666666666667 12.8 218.6666666666667 37.3333333333333S256 92.8 256 128S243.2 193.0666666666667 218.6666666666667 218.6666666666667zM200.5333333333333 55.4666666666667C180.2666666666667 35.2 155.7333333333333 25.6 128 25.6S75.7333333333333 35.2 55.4666666666666 55.4666666666667C35.2 75.7333333333334 25.6 100.2666666666667 25.6 128S35.2 180.2666666666667 55.4666666666666 200.5333333333333C75.7333333333333 220.8 100.2666666666667 230.4 128 230.4S180.2666666666667 220.8 200.5333333333333 200.5333333333333C220.8 180.2666666666667 230.4 155.7333333333334 230.4 128S220.8 75.7333333333334 200.5333333333333 55.4666666666667z" />
    <glyph glyph-name="search"
      unicode="&#xEA0C;"
      horiz-adv-x="256" d="M251.7333333333334 22.4L194.1333333333334 80C209.0666666666667 98.1333333333334 217.6 121.6 217.6 147.2C217.6 206.9333333333333 168.5333333333333 256 108.8 256S0 206.9333333333333 0 147.2S49.0666666666667 38.4 108.8 38.4C134.4 38.4 157.8666666666667 46.9333333333334 176 61.8666666666667L233.6 4.2666666666667C238.9333333333333 -1.0666666666666 247.4666666666667 -1.0666666666666 251.7333333333333 4.2666666666667C257.0666666666666 8.5333333333334 257.0666666666666 17.0666666666667 251.7333333333333 22.4zM168.5333333333334 89.6C167.4666666666667 89.6 167.4666666666667 88.5333333333334 168.5333333333334 89.6L166.4 87.4666666666667C151.4666666666667 72.5333333333334 131.2000000000001 64 108.8 64C62.9333333333334 64 25.6000000000001 101.3333333333334 25.6000000000001 147.2S62.9333333333334 230.4 108.8 230.4S192 193.0666666666667 192 147.2C192 124.8 182.4 104.5333333333334 168.5333333333333 89.6z" />
    <glyph glyph-name="print"
      unicode="&#xEA0D;"
      horiz-adv-x="256" d="M220.8 174.9333333333333H209.0666666666667V244.2666666666667C209.0666666666667 250.6666666666667 203.7333333333333 256 197.3333333333333 256H57.6C51.2 256 46.9333333333333 250.6666666666667 46.9333333333333 244.2666666666667V174.9333333333333H35.2C16 174.9333333333333 0 158.9333333333333 0 139.7333333333334V81.0666666666667C0 61.8666666666667 16 45.8666666666667 35.2 45.8666666666667H46.9333333333333V10.6666666666667C46.9333333333333 4.2666666666667 52.2666666666667 -1.0666666666667 58.6666666666667 -1.0666666666667H198.4C204.8 -1.0666666666667 210.1333333333333 4.2666666666667 210.1333333333333 10.6666666666667V45.8666666666667H221.8666666666667C241.0666666666667 45.8666666666667 257.0666666666667 61.8666666666667 257.0666666666667 81.0666666666667V139.7333333333333C256 158.9333333333333 240 174.9333333333333 220.8 174.9333333333333zM69.3333333333333 232.5333333333334H185.6V173.8666666666667H69.3333333333333V232.5333333333334zM185.6 23.4666666666667H69.3333333333333V92.8H185.6V23.4666666666667zM232.5333333333334 81.0666666666667C232.5333333333334 74.6666666666667 227.2 69.3333333333333 220.8 69.3333333333333H209.0666666666667V104.5333333333333C209.0666666666667 110.9333333333333 203.7333333333333 116.2666666666667 197.3333333333333 116.2666666666667H57.6C51.2 116.2666666666667 45.8666666666667 110.9333333333333 45.8666666666667 104.5333333333333V69.3333333333333H35.2C28.8 69.3333333333333 23.4666666666667 74.6666666666667 23.4666666666667 81.0666666666667V139.7333333333333C23.4666666666667 146.1333333333333 28.8 151.4666666666667 35.2 151.4666666666667H221.8666666666667C228.2666666666667 151.4666666666667 233.6 146.1333333333333 233.6 139.7333333333333V81.0666666666667z" />
    <glyph glyph-name="plus"
      unicode="&#xEA0E;"
      horiz-adv-x="256" d="M240 144H144V240C144 248.5333333333334 136.5333333333333 256 128 256S112 248.5333333333334 112 240V144H16C7.4666666666667 144 0 136.5333333333333 0 128S7.4666666666667 112 16 112H112V16C112 7.4666666666667 119.4666666666667 0 128 0S144 7.4666666666667 144 16V112H240C248.5333333333334 112 256 119.4666666666667 256 128S248.5333333333334 144 240 144z" />
    <glyph glyph-name="play"
      unicode="&#xEA0F;"
      horiz-adv-x="256" d="M254.9333333333333 137.6C249.6 166.4 247.4666666666667 188.8 228.2666666666667 211.2C208 233.6 180.2666666666667 249.6 147.2 254.9333333333334C112 259.2 70.4 249.6 45.8666666666667 226.1333333333334C22.4 203.7333333333334 6.4 182.4 2.1333333333333 150.4C0 135.4666666666667 -1.0666666666667 122.6666666666667 0 106.6666666666667C1.0666666666667 86.4 5.3333333333333 78.9333333333333 13.8666666666667 61.8666666666667C13.8666666666667 60.8 14.9333333333333 60.8 14.9333333333333 59.7333333333334C44.8 5.3333333333334 107.7333333333333 -4.2666666666667 153.6 1.0666666666667C169.6 5.3333333333334 182.4 9.6 187.7333333333333 11.7333333333333C209.0666666666667 20.2666666666667 228.2666666666667 40.5333333333334 240 60.8C253.8666666666667 83.2 258.1333333333334 115.2 254.9333333333334 137.6zM176 125.8666666666667L106.6666666666667 73.6H104.5333333333333C103.4666666666667 73.6 102.4 74.6666666666667 102.4 75.7333333333333V180.2666666666667V182.4C103.4666666666666 183.4666666666667 105.6 183.4666666666667 106.6666666666666 182.4L176 130.1333333333334C177.0666666666666 128 177.0666666666666 126.9333333333334 176 125.8666666666667z" />
    <glyph glyph-name="person"
      unicode="&#xEA10;"
      horiz-adv-x="256" d="M232.5333333333334 83.2C216.5333333333333 93.8666666666667 199.4666666666667 101.3333333333333 180.2666666666667 105.6C161.0666666666667 109.8666666666667 144 112 128 112S94.9333333333333 109.8666666666667 75.7333333333333 105.6C56.5333333333333 101.3333333333333 39.4666666666667 93.8666666666667 23.4666666666667 83.2C7.4666666666667 72.5333333333334 0 60.8 0 48V0H256V48C256 60.8 248.5333333333334 72.5333333333333 232.5333333333334 83.2zM225.0666666666667 30.9333333333333H30.9333333333333V48C30.9333333333333 54.4 41.6 60.8 62.9333333333333 69.3333333333333S105.6 82.1333333333334 128 82.1333333333334S171.7333333333333 77.8666666666667 193.0666666666667 69.3333333333333C214.4 60.8 225.0666666666667 54.4 225.0666666666667 48V30.9333333333333zM128 128C145.0666666666667 128 160 134.4 172.8 147.2C185.6 158.9333333333333 192 173.8666666666667 192 192S185.6 224 172.8 236.8C160 249.6 145.0666666666667 256 128 256S96 249.6 83.2 236.8C70.4 224 64 209.0666666666667 64 192S70.4 160 83.2 147.2C96 134.4 110.9333333333333 128 128 128zM104.5333333333333 215.4666666666667C110.9333333333333 221.8666666666667 119.4666666666667 225.0666666666667 128 225.0666666666667S145.0666666666667 221.8666666666667 151.4666666666667 215.4666666666667C157.8666666666667 209.0666666666667 161.0666666666667 200.5333333333333 161.0666666666667 192C161.0666666666667 182.4 157.8666666666667 174.9333333333333 151.4666666666667 168.5333333333333C145.0666666666667 162.1333333333333 136.5333333333333 158.9333333333333 128 158.9333333333333S110.9333333333333 162.1333333333333 104.5333333333333 168.5333333333333C97.0666666666667 173.8666666666667 93.8666666666667 182.4 93.8666666666667 192C93.8666666666667 201.6 97.0666666666667 209.0666666666667 104.5333333333333 215.4666666666667z" />
    <glyph glyph-name="PDF"
      unicode="&#xEA11;"
      horiz-adv-x="256" d="M64 64H149.3333333333333V85.3333333333333H64V64zM231.4666666666667 189.8666666666667L166.4 253.8666666666667C164.2666666666667 254.9333333333334 162.1333333333333 256 158.9333333333333 256H32C25.6 256 21.3333333333333 251.7333333333334 21.3333333333333 245.3333333333334V10.6666666666667C21.3333333333333 4.2666666666667 25.6 0 32 0H224C230.4 0 234.6666666666667 4.2666666666667 234.6666666666667 10.6666666666667V182.4C234.6666666666667 184.5333333333334 233.6 187.7333333333334 231.4666666666667 189.8666666666667zM160 230.4L203.7333333333333 187.7333333333334H160V230.4zM213.3333333333333 21.3333333333333H42.6666666666667V234.6666666666667H138.6666666666667V186.6666666666667C138.6666666666667 174.9333333333333 148.2666666666667 165.3333333333334 160 165.3333333333334H213.3333333333333V21.3333333333333zM64 96H192V117.3333333333334H64V96z" />
    <glyph glyph-name="minus"
      unicode="&#xEA12;"
      horiz-adv-x="256" d="M240 144H16C7.4666666666667 144 0 136.5333333333333 0 128S7.4666666666667 112 16 112H240C248.5333333333334 112 256 119.4666666666667 256 128S248.5333333333334 144 240 144z" />
    <glyph glyph-name="mail"
      unicode="&#xEA13;"
      horiz-adv-x="256" d="M254.9333333333333 137.6C249.6 166.4 247.4666666666667 188.8 228.2666666666667 211.2C208 233.6 180.2666666666667 249.6 147.2 254.9333333333334C112 259.2 70.4 249.6 45.8666666666667 226.1333333333334C22.4 203.7333333333334 6.4 182.4 2.1333333333333 150.4C0 135.4666666666667 -1.0666666666667 122.6666666666667 0 106.6666666666667C1.0666666666667 86.4 5.3333333333333 78.9333333333333 13.8666666666667 61.8666666666667C13.8666666666667 60.8 14.9333333333333 60.8 14.9333333333333 59.7333333333334C44.8 5.3333333333334 107.7333333333333 -4.2666666666667 153.6 1.0666666666667C169.6 5.3333333333334 182.4 9.6 187.7333333333333 11.7333333333333C209.0666666666667 20.2666666666667 228.2666666666667 40.5333333333334 240 60.8C253.8666666666667 83.2 258.1333333333334 115.2 254.9333333333334 137.6zM181.3333333333333 96C181.3333333333333 92.8 180.2666666666667 90.6666666666667 178.1333333333333 88.5333333333333C176 86.4 172.8 85.3333333333333 170.6666666666667 85.3333333333333H85.3333333333333C82.1333333333333 85.3333333333333 80 86.4 77.8666666666667 88.5333333333333C75.7333333333333 90.6666666666667 74.6666666666667 92.8 74.6666666666667 96V160C74.6666666666667 163.2 75.7333333333333 165.3333333333333 77.8666666666667 167.4666666666667C80 169.6 82.1333333333333 170.6666666666667 85.3333333333333 170.6666666666667H170.6666666666667C173.8666666666667 170.6666666666667 176 169.6 178.1333333333333 167.4666666666667C180.2666666666667 165.3333333333333 181.3333333333333 163.2 181.3333333333333 160V96zM85.3333333333333 160V149.3333333333333L128 122.6666666666667L170.6666666666667 149.3333333333333V160L128 133.3333333333334L85.3333333333333 160z" />
    <glyph glyph-name="location-line"
      unicode="&#xEA14;"
      horiz-adv-x="256" d="M128 204.8C117.3333333333333 204.8 107.7333333333333 200.5333333333333 99.2 193.0666666666667C91.7333333333333 185.6 87.4666666666667 176 87.4666666666667 165.3333333333334S91.7333333333333 145.0666666666667 99.2 136.5333333333334C106.6666666666667 129.0666666666667 116.2666666666667 124.8 128 124.8S148.2666666666667 129.0666666666667 156.8 136.5333333333334C164.2666666666667 144 168.5333333333334 153.6 168.5333333333334 165.3333333333334C168.5333333333334 176 164.2666666666667 185.6 156.8 194.1333333333333C148.2666666666667 200.5333333333333 138.6666666666667 204.8 128 204.8zM139.7333333333334 153.6C136.5333333333334 150.4 133.3333333333334 149.3333333333334 128 149.3333333333334S119.4666666666667 150.4 116.2666666666667 153.6C113.0666666666667 156.8 112 160 112 165.3333333333334S113.0666666666667 173.8666666666667 116.2666666666667 177.0666666666667C119.4666666666667 180.2666666666667 123.7333333333333 181.3333333333334 128 181.3333333333334S136.5333333333333 180.2666666666667 139.7333333333334 177.0666666666667C142.9333333333333 173.8666666666667 144 170.6666666666667 144 165.3333333333334S142.9333333333334 156.8 139.7333333333334 153.6zM192 229.3333333333334C174.9333333333333 247.4666666666667 152.5333333333333 256 128 256C102.4 256 81.0666666666667 247.4666666666667 64 229.3333333333334C45.8666666666667 211.2 37.3333333333333 189.8666666666667 37.3333333333333 165.3333333333334C37.3333333333333 152.5333333333334 40.5333333333333 138.6666666666667 46.9333333333333 122.6666666666667C53.3333333333333 107.7333333333334 59.7333333333333 93.8666666666667 67.2 82.1333333333334C74.6666666666667 70.4 82.1333333333333 57.6 91.7333333333333 45.8666666666667C101.3333333333333 33.0666666666667 107.7333333333333 25.6 110.9333333333333 20.2666666666667C112 18.1333333333334 115.2 14.9333333333333 120.5333333333333 9.6C120.5333333333333 9.6 120.5333333333333 8.5333333333334 121.6 8.5333333333334C125.8666666666667 4.2666666666667 132.2666666666667 4.2666666666667 136.5333333333333 8.5333333333334L146.1333333333333 18.1333333333334C152.5333333333333 25.6 158.9333333333333 34.1333333333334 166.4 44.8S182.4 67.2 189.8666666666667 80C198.4 92.8 204.8 106.6666666666667 211.2 121.6C217.6 136.5333333333333 219.7333333333333 151.4666666666667 219.7333333333333 163.2C218.6666666666667 189.8666666666667 210.1333333333333 212.2666666666667 192 229.3333333333333zM187.7333333333333 131.2C182.4 117.3333333333334 176 105.6 168.5333333333333 92.8C161.0666666666667 81.0666666666667 153.6 69.3333333333333 146.1333333333333 58.6666666666667C138.6666666666667 49.0666666666667 133.3333333333333 40.5333333333334 128 35.2C124.8 39.4666666666667 118.4 46.9333333333333 109.8666666666667 58.6666666666667C101.3333333333333 70.4 92.8 82.1333333333334 86.4 92.8C80 103.4666666666667 73.6 116.2666666666667 68.2666666666667 130.1333333333333C62.9333333333334 142.9333333333333 60.8 154.6666666666667 60.8 164.2666666666667C60.8 183.4666666666667 67.2 198.4 80 212.2666666666667C92.8 225.0666666666667 108.8 231.4666666666667 128 231.4666666666667S162.1333333333333 225.0666666666667 176 212.2666666666667C188.8 199.4666666666667 195.2 183.4666666666667 195.2 164.2666666666667C195.2 155.7333333333334 193.0666666666667 144 187.7333333333333 131.2z" />
    <glyph glyph-name="location-filled"
      unicode="&#xEA15;"
      horiz-adv-x="256" d="M194.1333333333333 229.3333333333334C176 246.4 153.6 256 128 256C102.4 256 80 246.4 61.8666666666667 229.3333333333334C43.7333333333333 211.2 35.2 188.8 35.2 163.2C35.2 150.4 38.4 135.4666666666667 44.8 119.4666666666667C51.2 104.5333333333334 57.6 89.6 65.0666666666667 77.8666666666667S81.0666666666667 53.3333333333334 90.6666666666667 40.5333333333334C100.2666666666667 27.7333333333334 106.6666666666667 19.2 110.9333333333333 14.9333333333334C113.0666666666667 12.8 116.2666666666667 9.6 120.5333333333333 4.2666666666667C120.5333333333333 4.2666666666667 120.5333333333333 3.2 121.6 3.2C125.8666666666667 -1.0666666666666 132.2666666666667 -1.0666666666666 136.5333333333333 3.2L146.1333333333333 13.8666666666667C152.5333333333333 21.3333333333334 158.9333333333333 29.8666666666667 167.4666666666667 41.6C174.9333333333333 53.3333333333334 183.4666666666667 65.0666666666667 190.9333333333333 77.8666666666667C199.4666666666667 90.6666666666667 206.9333333333333 105.6 212.2666666666667 120.5333333333333C218.6666666666667 136.5333333333333 221.8666666666667 150.4 221.8666666666667 163.2C220.8 188.8 211.2 211.2 194.1333333333333 229.3333333333333zM156.8 134.4C149.3333333333334 125.8666666666667 138.6666666666667 122.6666666666667 128 122.6666666666667S106.6666666666667 126.9333333333334 99.2 134.4C91.7333333333333 141.8666666666667 87.4666666666667 152.5333333333334 87.4666666666667 163.2C87.4666666666667 173.8666666666667 91.7333333333333 184.5333333333334 99.2 192C106.6666666666667 199.4666666666667 116.2666666666667 203.7333333333334 128 203.7333333333334S149.3333333333334 199.4666666666667 156.8 192C164.2666666666667 184.5333333333334 168.5333333333334 173.8666666666667 168.5333333333334 163.2C168.5333333333334 151.4666666666667 164.2666666666667 141.8666666666667 156.8 134.4z" />
    <glyph glyph-name="linkedin"
      unicode="&#xEA16;"
      horiz-adv-x="256" d="M254.9333333333333 137.6C249.6 166.4 247.4666666666667 188.8 228.2666666666667 211.2C208 233.6 180.2666666666667 249.6 147.2 254.9333333333334C112 259.2 70.4 249.6 45.8666666666667 226.1333333333334C22.4 203.7333333333334 6.4 182.4 2.1333333333333 150.4C0 135.4666666666667 -1.0666666666667 122.6666666666667 0 106.6666666666667C1.0666666666667 86.4 5.3333333333333 78.9333333333333 13.8666666666667 61.8666666666667C13.8666666666667 60.8 14.9333333333333 60.8 14.9333333333333 59.7333333333334C44.8 5.3333333333334 107.7333333333333 -4.2666666666667 153.6 1.0666666666667C169.6 5.3333333333334 182.4 9.6 187.7333333333333 11.7333333333333C209.0666666666667 20.2666666666667 228.2666666666667 40.5333333333334 240 60.8C253.8666666666667 83.2 258.1333333333334 115.2 254.9333333333334 137.6zM92.8 69.3333333333333H65.0666666666667V152.5333333333334H92.8V69.3333333333334zM78.9333333333333 163.2C69.3333333333333 163.2 64 169.6 64 178.1333333333333C64 185.6 70.4 192 78.9333333333333 192C88.5333333333333 192 93.8666666666667 185.6 93.8666666666667 178.1333333333333C94.9333333333333 169.6 88.5333333333334 163.2 78.9333333333333 163.2zM192 69.3333333333333H164.2666666666667V113.0666666666667C164.2666666666667 123.7333333333333 160 132.2666666666667 150.4 132.2666666666667C142.9333333333333 132.2666666666667 138.6666666666666 126.9333333333333 136.5333333333333 122.6666666666667C135.4666666666667 120.5333333333333 135.4666666666667 118.4 135.4666666666667 116.2666666666667V70.4H107.7333333333333V152.5333333333334H135.4666666666667V140.8C138.6666666666666 146.1333333333333 145.0666666666666 154.6666666666667 160 154.6666666666667C178.1333333333333 154.6666666666667 192 142.9333333333333 192 117.3333333333334V69.3333333333334zM135.4666666666667 139.7333333333334C135.4666666666667 140.8 135.4666666666667 140.8 135.4666666666667 139.7333333333334z" />
    <glyph glyph-name="language"
      unicode="&#xEA17;"
      horiz-adv-x="256" d="M128 0C57.6 0 0 57.6 0 128S57.6 256 128 256S256 198.4 256 128S198.4 0 128 0zM35.2 181.3333333333334H78.9333333333333C83.2 194.1333333333333 88.5333333333333 206.9333333333333 94.9333333333333 219.7333333333334C97.0666666666667 224 99.2 228.2666666666667 101.3333333333333 231.4666666666667C73.6 224 50.1333333333333 205.8666666666667 35.2 181.3333333333334zM101.3333333333333 181.3333333333334H160C152.5333333333333 198.4 142.9333333333333 216.5333333333333 129.0666666666667 233.6C123.7333333333333 226.1333333333334 119.4666666666667 218.6666666666667 114.1333333333333 209.0666666666667C108.8 200.5333333333334 104.5333333333333 190.9333333333333 101.3333333333333 181.3333333333334zM220.8 181.3333333333334C206.9333333333333 204.8 184.5333333333333 222.9333333333333 157.8666666666666 230.4C169.6 214.4 178.1333333333333 197.3333333333334 183.4666666666666 181.3333333333334H220.8zM35.2 74.6666666666667C49.0666666666667 51.2 71.4666666666667 33.0666666666667 99.2 25.6C88.5333333333333 41.6 81.0666666666667 58.6666666666667 75.7333333333333 74.6666666666667H35.2zM25.6 96H70.4C67.2 117.3333333333334 67.2 138.6666666666667 72.5333333333333 160H25.6C23.4666666666667 150.4 21.3333333333333 138.6666666666667 21.3333333333333 128S23.4666666666667 105.6 25.6 96zM99.2 74.6666666666667C105.6 56.5333333333334 115.2 39.4666666666667 128 22.4C141.8666666666667 40.5333333333334 152.5333333333333 57.6 160 74.6666666666667H99.2zM92.8 96H166.4C171.7333333333333 117.3333333333334 171.7333333333333 138.6666666666667 166.4 160H94.9333333333333C89.6 138.6666666666667 89.6 117.3333333333334 92.8 96zM220.8 74.6666666666667H183.4666666666667C178.1333333333333 58.6666666666667 169.6 41.6 157.8666666666667 25.6C183.4666666666667 33.0666666666667 206.9333333333333 51.2 220.8 74.6666666666667zM229.3333333333333 96C232.5333333333333 105.6 234.6666666666667 117.3333333333334 234.6666666666667 128S232.5333333333334 150.4 229.3333333333333 160H187.7333333333333C192 138.6666666666667 192 117.3333333333334 187.7333333333333 96H229.3333333333333z" />
    <glyph glyph-name="instagram"
      unicode="&#xEA18;"
      horiz-adv-x="256" d="M128 152.5333333333334C114.1333333333333 152.5333333333334 103.4666666666667 141.8666666666667 103.4666666666667 128S114.1333333333334 103.4666666666667 128 103.4666666666667S152.5333333333333 114.1333333333334 152.5333333333333 128S141.8666666666667 152.5333333333334 128 152.5333333333334zM254.9333333333334 137.6C249.6 166.4 247.4666666666667 188.8 228.2666666666667 211.2C208 233.6 180.2666666666667 249.6 147.2 254.9333333333334C112 259.2 70.4 249.6 45.8666666666667 226.1333333333334C22.4 203.7333333333334 6.4 182.4 2.1333333333333 150.4C0 135.4666666666667 -1.0666666666667 122.6666666666667 0 106.6666666666667C1.0666666666667 86.4 5.3333333333333 78.9333333333333 13.8666666666667 61.8666666666667C13.8666666666667 60.8 14.9333333333333 60.8 14.9333333333333 59.7333333333334C44.8 5.3333333333334 107.7333333333333 -4.2666666666667 153.6 1.0666666666667C169.6 5.3333333333334 182.4 9.6 187.7333333333333 11.7333333333333C209.0666666666667 20.2666666666667 228.2666666666667 40.5333333333334 240 60.8C253.8666666666667 83.2 258.1333333333334 115.2 254.9333333333334 137.6zM201.6 97.0666666666667C200.5333333333334 85.3333333333333 198.4 74.6666666666667 189.8666666666667 66.1333333333333C181.3333333333334 57.6 170.6666666666667 54.4 158.9333333333333 53.3333333333333C148.2666666666667 52.2666666666667 138.6666666666667 53.3333333333333 128 53.3333333333333H97.0666666666667C85.3333333333333 54.4 74.6666666666667 57.6 66.1333333333333 66.1333333333333C56.5333333333333 74.6666666666667 54.4 85.3333333333333 53.3333333333333 97.0666666666667V128V158.9333333333333C54.4 170.6666666666667 56.5333333333333 181.3333333333334 66.1333333333333 189.8666666666667C74.6666666666667 198.4 85.3333333333333 201.6 97.0666666666667 202.6666666666667H158.9333333333333C170.6666666666667 201.6 181.3333333333334 198.4 189.8666666666667 189.8666666666667C198.4 181.3333333333334 201.6 170.6666666666667 201.6 158.9333333333333C202.6666666666667 148.2666666666667 201.6 138.6666666666667 201.6 128S202.6666666666667 107.7333333333334 201.6 97.0666666666667zM186.6666666666667 171.7333333333333C185.6 174.9333333333333 183.4666666666667 178.1333333333333 181.3333333333334 180.2666666666667C179.2 182.4 176 184.5333333333333 172.8 185.6C162.1333333333334 189.8666666666667 138.6666666666667 188.8 128 188.8S93.8666666666667 189.8666666666667 84.2666666666667 186.6666666666666C80 184.5333333333333 77.8666666666667 183.4666666666667 75.7333333333334 180.2666666666667C72.5333333333334 178.1333333333333 71.4666666666667 174.9333333333333 69.3333333333333 171.7333333333333C66.1333333333333 162.1333333333333 66.1333333333333 138.6666666666666 66.1333333333333 128S65.0666666666667 93.8666666666667 69.3333333333333 84.2666666666667C70.4 81.0666666666667 72.5333333333334 77.8666666666667 74.6666666666667 75.7333333333333C76.8 73.6 80 71.4666666666666 83.2 70.4C92.8 66.1333333333333 116.2666666666667 67.2 126.9333333333333 67.2S161.0666666666667 66.1333333333333 170.6666666666667 70.4C173.8666666666667 71.4666666666666 177.0666666666667 73.6 179.2 75.7333333333333C181.3333333333333 77.8666666666667 183.4666666666667 81.0666666666667 184.5333333333333 84.2666666666667C188.8 93.8666666666667 187.7333333333333 117.3333333333333 187.7333333333333 128S189.8666666666667 162.1333333333333 186.6666666666667 171.7333333333333zM128 89.6C106.6666666666667 89.6 89.6 106.6666666666667 89.6 128S106.6666666666667 166.4 128 166.4S166.4 149.3333333333334 166.4 128S149.3333333333334 89.6 128 89.6zM167.4666666666667 158.9333333333333C162.1333333333333 158.9333333333333 158.9333333333333 163.2 158.9333333333333 167.4666666666667C158.9333333333333 172.8 163.2 176 167.4666666666667 176C172.8 176 176 171.7333333333334 176 167.4666666666667C177.0666666666667 163.2 172.8 158.9333333333333 167.4666666666667 158.9333333333333z" />
    <glyph glyph-name="image"
      unicode="&#xEA19;"
      horiz-adv-x="256" d="M172.8 144C180.2666666666667 144 185.6 150.4 185.6 156.8S180.2666666666667 170.6666666666667 172.8 170.6666666666667S160 164.2666666666667 160 157.8666666666667S166.4 144 172.8 144zM168.5333333333333 114.1333333333333L135.4666666666667 98.1333333333333L98.1333333333333 160L64 82.1333333333333H185.6L168.5333333333333 114.1333333333333zM243.2 224H12.8C5.3333333333333 224 0 218.6666666666667 0 212.2666666666667V43.7333333333334C0 37.3333333333333 5.3333333333333 32 12.8 32H243.2C250.6666666666667 32 256 37.3333333333333 256 43.7333333333334V212.2666666666667C256 218.6666666666667 250.6666666666667 224 243.2 224zM234.6666666666667 53.3333333333333H21.3333333333333V202.6666666666667H234.6666666666667V53.3333333333334z" />
    <glyph glyph-name="facebook"
      unicode="&#xEA1A;"
      horiz-adv-x="256" d="M254.9333333333333 137.6C249.6 166.4 247.4666666666667 188.8 228.2666666666667 211.2C208 233.6 180.2666666666667 249.6 147.2 254.9333333333334C112 259.2 70.4 249.6 45.8666666666667 226.1333333333334C22.4 203.7333333333334 6.4 182.4 2.1333333333333 150.4C0 135.4666666666667 -1.0666666666667 122.6666666666667 0 106.6666666666667C1.0666666666667 86.4 5.3333333333333 78.9333333333333 13.8666666666667 61.8666666666667C13.8666666666667 60.8 14.9333333333333 60.8 14.9333333333333 59.7333333333334C44.8 5.3333333333334 107.7333333333333 -4.2666666666667 153.6 1.0666666666667C169.6 5.3333333333334 182.4 9.6 187.7333333333333 11.7333333333333C209.0666666666667 20.2666666666667 228.2666666666667 40.5333333333334 240 60.8C253.8666666666667 83.2 258.1333333333334 115.2 254.9333333333334 137.6zM162.1333333333333 170.6666666666667H150.4C140.8 170.6666666666667 138.6666666666666 166.4 138.6666666666666 160V145.0666666666667H161.0666666666666L157.8666666666667 122.6666666666667H138.6666666666667V64H115.2V122.6666666666667H96V145.0666666666667H115.2V162.1333333333333C115.2 181.3333333333334 126.9333333333333 192 145.0666666666667 192C153.6 192 160 190.9333333333333 162.1333333333333 190.9333333333333V170.6666666666667z" />
    <glyph glyph-name="download"
      unicode="&#xEA1B;"
      horiz-adv-x="256" d="M119.4666666666667 73.6C123.7333333333333 69.3333333333333 131.2 69.3333333333333 135.4666666666667 73.6L182.4 120.5333333333333C186.6666666666667 124.8 186.6666666666667 132.2666666666667 182.4 136.5333333333333C178.1333333333333 140.8 170.6666666666666 140.8 166.4 136.5333333333333L139.7333333333333 109.8666666666667V244.2666666666667C139.7333333333333 250.6666666666667 134.4 256 128 256C121.6 256 116.2666666666667 250.6666666666667 116.2666666666667 244.2666666666667V109.8666666666667L89.6 136.5333333333333C85.3333333333333 140.8 77.8666666666667 140.8 73.6 136.5333333333333C69.3333333333333 132.2666666666667 69.3333333333333 124.8 73.6 120.5333333333333L119.4666666666667 73.6zM232.5333333333333 81.0666666666667C226.1333333333333 81.0666666666667 220.8 75.7333333333333 220.8 69.3333333333333V34.1333333333333C220.8 27.7333333333333 215.4666666666666 22.4 209.0666666666666 22.4H46.9333333333333C40.5333333333333 22.4 35.2 27.7333333333333 35.2 34.1333333333333V69.3333333333333C35.2 75.7333333333333 29.8666666666667 81.0666666666667 23.4666666666667 81.0666666666667S11.7333333333333 75.7333333333333 11.7333333333333 69.3333333333333V34.1333333333333C11.7333333333333 14.9333333333333 27.7333333333333 -1.0666666666667 46.9333333333333 -1.0666666666667H210.1333333333333C229.3333333333333 -1.0666666666667 245.3333333333333 14.9333333333333 245.3333333333333 34.1333333333333V69.3333333333333C244.2666666666667 75.7333333333333 238.9333333333333 81.0666666666667 232.5333333333333 81.0666666666667z" />
    <glyph glyph-name="chevron-right"
      unicode="&#xEA1C;"
      horiz-adv-x="256" d="M196.2666666666667 140.8L86.4 250.6666666666667C78.9333333333333 258.1333333333334 67.2 258.1333333333334 60.8 250.6666666666667C53.3333333333333 243.2 53.3333333333333 231.4666666666667 59.7333333333333 225.0666666666667L156.8 128L59.7333333333333 30.9333333333333C52.2666666666667 23.4666666666667 52.2666666666667 11.7333333333333 59.7333333333333 5.3333333333333C67.2 -2.1333333333333 78.9333333333333 -2.1333333333333 85.3333333333333 5.3333333333333L195.2 115.2C202.6666666666667 122.6666666666667 202.6666666666667 133.3333333333334 196.2666666666667 140.8z" />
    <glyph glyph-name="arrow-right"
      unicode="&#xEA1D;"
      horiz-adv-x="256" d="M251.7333333333334 138.6666666666667L166.4 224C161.0666666666667 229.3333333333334 151.4666666666667 229.3333333333334 146.1333333333334 224S140.8000000000001 209.0666666666667 146.1333333333334 203.7333333333334L206.9333333333334 142.9333333333333H13.8666666666667C6.4 141.8666666666667 0 136.5333333333333 0 128S6.4 114.1333333333333 13.8666666666667 113.0666666666667H206.9333333333333L146.1333333333333 53.3333333333333C140.8 48 140.8 38.4 146.1333333333333 33.0666666666667S161.0666666666667 27.7333333333333 166.4 33.0666666666667L251.7333333333333 118.4C257.0666666666666 122.6666666666667 257.0666666666666 133.3333333333333 251.7333333333333 138.6666666666666z" />
    <glyph glyph-name="checkbox-on"
      unicode="&#xEA1E;"
      horiz-adv-x="256" d="M247.4666666666667 247.4666666666667C242.1333333333333 252.8 235.7333333333333 256 227.2 256H28.8C20.2666666666667 256 13.8666666666667 252.8 8.5333333333333 247.4666666666667C3.2 241.0666666666667 0 234.6666666666667 0 227.2V28.8C0 21.3333333333333 3.2 14.9333333333333 8.5333333333333 8.5333333333333C13.8666666666667 3.2 20.2666666666667 -1e-13 28.8 -1e-13H227.2C235.7333333333333 -1e-13 242.1333333333334 3.1999999999999 247.4666666666667 8.5333333333333S256 21.3333333333333 256 28.8V227.2C256 234.6666666666667 252.8 241.0666666666667 247.4666666666667 247.4666666666667zM217.6 174.9333333333333L106.6666666666667 64C102.4 59.7333333333333 96 59.7333333333333 91.7333333333333 64L38.4 117.3333333333333C33.0666666666667 122.6666666666667 33.0666666666667 132.2666666666667 38.4 137.6S53.3333333333333 142.9333333333333 58.6666666666667 137.6L99.2 97.0666666666667L197.3333333333333 195.2C202.6666666666667 200.5333333333333 212.2666666666667 200.5333333333333 217.6 195.2C222.9333333333333 188.8 222.9333333333333 180.2666666666667 217.6 174.9333333333333z" />
    <glyph glyph-name="checkbox-off"
      unicode="&#xEA1F;"
      horiz-adv-x="256" d="M247.4666666666667 247.4666666666667C241.0666666666667 252.8 234.6666666666667 256 227.2 256H28.8C21.3333333333333 256 14.9333333333333 252.8 8.5333333333333 247.4666666666667C3.2 241.0666666666667 0 234.6666666666667 0 227.2V28.8C0 21.3333333333333 3.2 14.9333333333333 8.5333333333333 8.5333333333333C14.9333333333333 3.2 21.3333333333333 -1e-13 28.8 -1e-13H227.2C234.6666666666667 -1e-13 241.0666666666667 3.1999999999999 247.4666666666667 8.5333333333333C252.8 13.8666666666666 256 21.3333333333333 256 28.8V227.2C256 234.6666666666667 252.8 241.0666666666667 247.4666666666667 247.4666666666667zM229.3333333333333 35.2C229.3333333333333 28.8 225.0666666666666 24.5333333333334 218.6666666666667 24.5333333333334H37.3333333333333C30.9333333333333 24.5333333333334 26.6666666666667 28.8 26.6666666666667 35.2V218.6666666666667C26.6666666666667 225.0666666666667 30.9333333333333 229.3333333333334 37.3333333333333 229.3333333333334H218.6666666666667C225.0666666666667 229.3333333333334 229.3333333333333 225.0666666666667 229.3333333333333 218.6666666666667V35.2z" />
    <glyph glyph-name="check"
      unicode="&#xEA20;"
      horiz-adv-x="256" d="M250.6666666666667 217.6C243.2 225.0666666666667 231.4666666666667 225.0666666666667 222.9333333333333 217.6L88.5333333333333 84.2666666666667L33.0666666666667 139.7333333333333C25.6 147.2 12.8 147.2 5.3333333333333 139.7333333333333C-2.1333333333333 132.2666666666667 -2.1333333333333 119.4666666666667 5.3333333333333 112L81.0666666666667 35.2C85.3333333333333 32 91.7333333333333 32 96 35.2L250.6666666666667 189.8666666666667C258.1333333333334 197.3333333333334 258.1333333333334 210.1333333333333 250.6666666666667 217.6z" />
    <glyph glyph-name="arrow-left"
      unicode="&#xEA21;"
      horiz-adv-x="256" d="M242.1333333333334 141.8666666666667H49.0666666666667L109.8666666666667 202.6666666666667C115.2 208 115.2 217.6 109.8666666666667 222.9333333333333S94.9333333333333 228.2666666666667 89.6 222.9333333333333L4.2666666666667 137.6C-1.0666666666667 132.2666666666667 -1.0666666666667 122.6666666666667 4.2666666666667 117.3333333333334L89.6 32C94.9333333333333 26.6666666666667 104.5333333333334 26.6666666666667 109.8666666666667 32S115.2 46.9333333333333 109.8666666666667 52.2666666666667L49.0666666666667 113.0666666666667H242.1333333333334C249.6 113.0666666666667 256 119.4666666666667 256 126.9333333333333S249.6 141.8666666666667 242.1333333333334 141.8666666666667z" />
  </font>
</defs>
</svg>
